<?xml version="1.0" encoding="UTF-8"?>
<svg width="24px" height="24px" viewBox="0 0 24 24" version="1.1" xmlns="http://www.w3.org/2000/svg" xmlns:xlink="http://www.w3.org/1999/xlink">
    <!-- Generator: sketchtool 61.1 (101010) - https://sketch.com -->
    <title>21DE71E0-A6BB-4C08-96A7-CA9DC942393B</title>
    <desc>Created with sketchtool.</desc>
    <g id="Video-Call-test-task" stroke="none" stroke-width="1" fill="none" fill-rule="evenodd">
        <g id="1" transform="translate(-1248.000000, -948.000000)" fill="#FFFFFF">
            <g id="button" transform="translate(1234.000000, 934.000000)">
                <g id="icon/call/chat-white" transform="translate(10.000000, 10.000000)">
                    <g id="icons8-chat-bubble" transform="translate(4.000000, 4.000000)">
                        <path d="M12,0 C5.37230769,0 0,4.54615385 0,10.1538462 C0,13.2627692 1.65537978,16.0416775 4.25661055,17.9044468 C4.32302815,19.3222782 4.10333391,21.2800449 2.1472356,22.1826923 C2.14603104,22.183288 2.14482909,22.1838889 2.14362978,22.1844951 C1.96471073,22.2525392 1.84636333,22.4239637 1.84615385,22.6153846 C1.84615385,22.8702853 2.05279165,23.0769231 2.30769231,23.0769231 C2.32093322,23.0769231 2.33416663,23.0762899 2.34735582,23.0751203 C4.59414914,23.0607185 6.50148314,21.8464929 7.81730769,20.5637022 C8.23453846,20.1566252 8.81619231,19.9563028 9.38942308,20.0643028 C10.2294231,20.2239951 11.1027692,20.3076923 12,20.3076923 C18.6276923,20.3076923 24,15.7615385 24,10.1538462 C24,4.54615385 18.6276923,0 12,0 Z M6.46153846,8.30769231 C7.48153846,8.30769231 8.30769231,9.13384615 8.30769231,10.1538462 C8.30769231,11.1738462 7.48153846,12 6.46153846,12 C5.44153846,12 4.61538462,11.1738462 4.61538462,10.1538462 C4.61538462,9.13384615 5.44153846,8.30769231 6.46153846,8.30769231 Z M12,8.30769231 C13.02,8.30769231 13.8461538,9.13384615 13.8461538,10.1538462 C13.8461538,11.1738462 13.02,12 12,12 C10.98,12 10.1538462,11.1738462 10.1538462,10.1538462 C10.1538462,9.13384615 10.98,8.30769231 12,8.30769231 Z M17.5384615,8.30769231 C18.5584615,8.30769231 19.3846154,9.13384615 19.3846154,10.1538462 C19.3846154,11.1738462 18.5584615,12 17.5384615,12 C16.5184615,12 15.6923077,11.1738462 15.6923077,10.1538462 C15.6923077,9.13384615 16.5184615,8.30769231 17.5384615,8.30769231 Z" id="Shape" fill-rule="nonzero"></path>
                    </g>
                </g>
            </g>
        </g>
    </g>
</svg>