<?xml version="1.0" encoding="UTF-8"?>
<svg width="102px" height="30px" viewBox="0 0 102 30" version="1.1" xmlns="http://www.w3.org/2000/svg" xmlns:xlink="http://www.w3.org/1999/xlink">
    <!-- Generator: sketchtool 61.1 (101010) - https://sketch.com -->
    <title>D2C8F22D-D92C-4A6B-8FB4-CA3112847D4A</title>
    <desc>Created with sketchtool.</desc>
    <g id="Video-Call-test-task" stroke="none" stroke-width="1" fill="none" fill-rule="evenodd">
        <g id="0" transform="translate(-40.000000, -22.000000)">
            <g id="ui/logo/widr-logo-header" transform="translate(40.000000, 22.000000)">
                <g>
                    <rect id="Rectangle" x="0" y="0" width="102" height="30"></rect>
                    <path d="M80.8130615,0.648898386 L80.8130615,29.4650465 L73.187352,29.4650465 L73.187352,26.1964747 C71.4847461,28.521534 68.9566495,30 66.1386156,30 C61.0273963,30 56.8642257,25.1424544 56.8642257,19.1734366 C56.8642257,13.2042189 61.0273963,8.34677323 66.1386156,8.34677323 C68.9566495,8.34677323 71.4847461,9.82513928 73.187352,12.1501986 L73.187352,12.1501986 L73.187352,0.648898386 L80.8130615,0.648898386 Z M8.41108125,0.648838436 L13.0406726,18.3229864 L18.5511809,0.648838436 L26.6716246,0.648838436 L32.1818327,18.3229864 L36.8116242,0.648838436 L44.6413302,0.648838436 L36.8509428,29.4650865 L27.4094738,29.4650865 L22.3206651,12.8672401 L17.0633767,29.4650865 L7.79088769,29.4650865 L-1.7644863e-15,0.648838436 L8.41108125,0.648838436 Z M53.8748908,9.29346306 L53.8748908,29.4650265 L46.2491813,29.4650265 L46.2491813,9.29346306 L53.8748908,9.29346306 Z M92.8080191,9.29346306 L92.8080191,29.4650265 L85.1823096,29.4650265 L85.1823096,9.29346306 L92.8080191,9.29346306 Z M69.0652009,15.1801696 C66.7982278,15.1801696 64.9846694,16.9503921 64.9846694,19.1734366 C64.9846694,21.396581 66.7982278,23.1665037 69.0652009,23.1665037 C71.332474,23.1665037 73.1460325,21.396581 73.1460325,19.1734366 C73.1460325,16.9503921 71.332474,15.1801696 69.0652009,15.1801696 Z M97.8368294,8.3880188 C100.186442,8.3880188 102,10.1579415 102,12.4632174 C102,14.7685931 100.186442,16.5388156 97.8368294,16.5388156 C95.4871172,16.5388156 93.6735588,14.7685931 93.6735588,12.4632174 C93.6735588,10.1579415 95.4871172,8.3880188 97.8368294,8.3880188 Z M50.0256288,2.13162821e-14 C52.375341,2.13162821e-14 54.1888994,1.77002262 54.1888994,4.07529848 C54.1888994,6.38057435 52.375341,8.1507968 50.0256288,8.1507968 C47.6763168,8.1507968 45.8624582,6.38057435 45.8624582,4.07529848 C45.8624582,1.77002262 47.6763168,2.13162821e-14 50.0256288,2.13162821e-14 Z" id="widr-logo" fill="#F6E194" fill-rule="nonzero"></path>
                </g>
            </g>
        </g>
    </g>
</svg>