<?xml version="1.0" encoding="UTF-8"?>
<svg width="12px" height="21px" viewBox="0 0 12 21" version="1.1" xmlns="http://www.w3.org/2000/svg" xmlns:xlink="http://www.w3.org/1999/xlink">
    <!-- Generator: sketchtool 61.1 (101010) - https://sketch.com -->
    <title>A32D787D-3D2D-4DF1-BFD1-26AAA06F2F66</title>
    <desc>Created with sketchtool.</desc>
    <g id="Video-Call-test-task" stroke="none" stroke-width="1" fill="none" fill-rule="evenodd">
        <g id="1" transform="translate(-590.000000, -949.000000)" fill="#FFFFFF">
            <g id="main-group" transform="translate(570.000000, 934.000000)">
                <g id="button">
                    <g id="icon/call/mic-white" transform="translate(10.000000, 10.000000)">
                        <g id="icons8-microphone" transform="translate(10.666667, 5.333333)">
                            <path d="M5.5308642,0 C4.22162963,0 3.16049383,1.0611358 3.16049383,2.37037037 L3.16049383,11.8518519 C3.16049383,13.1610864 4.22162963,14.2222222 5.5308642,14.2222222 C6.84009877,14.2222222 7.90123457,13.1610864 7.90123457,11.8518519 L7.90123457,2.37037037 C7.90123457,1.0611358 6.84009877,0 5.5308642,0 Z M0.777777778,7.890432 C0.342011894,7.89724371 -0.00596758133,8.25557976 -7.56207118e-05,8.69135802 L-7.56207118e-05,11.8518519 C-7.56207118e-05,14.6283433 2.06808968,16.9329572 4.74074074,17.3194445 L4.74074074,18.962963 L2.37037037,18.962963 C2.08542347,18.9589331 1.82038016,19.1086422 1.67673069,19.3547637 C1.53308122,19.6008853 1.53308122,19.9052876 1.67673069,20.1514091 C1.82038016,20.3975306 2.08542347,20.5472397 2.37037037,20.5432099 L5.39814795,20.5432099 C5.48347452,20.5573128 5.57053753,20.5573128 5.6558641,20.5432099 L8.69135802,20.5432099 C8.97630492,20.5472397 9.24134824,20.3975306 9.38499771,20.1514091 C9.52864717,19.9052876 9.52864717,19.6008853 9.38499771,19.3547637 C9.24134824,19.1086422 8.97630492,18.9589331 8.69135802,18.962963 L6.32098765,18.962963 L6.32098765,17.3194445 C8.99363872,16.9329572 11.0618077,14.6283433 11.0618077,11.8518519 L11.0618077,8.69135802 C11.0657583,8.40641113 10.9160491,8.14136781 10.6699276,7.99771834 C10.4238061,7.85406888 10.1194038,7.85406888 9.87328225,7.99771834 C9.62716073,8.14136781 9.47745162,8.40641113 9.48148148,8.69135802 L9.48148148,11.8518519 C9.48148148,14.01318 7.76969165,15.7502594 5.62037017,15.7978398 C5.58658807,15.7935899 5.55256661,15.7915279 5.51851852,15.7916666 C5.48962072,15.7921424 5.46077078,15.7942032 5.43209877,15.7978398 C3.28714272,15.7454538 1.58024691,14.010063 1.58024691,11.8518519 L1.58024691,8.69135802 C1.58317152,8.47778739 1.49951473,8.27212906 1.34833804,8.12124308 C1.19716136,7.97035711 0.991342386,7.88709631 0.777777778,7.890432 Z" id="Shape" fill-rule="nonzero"></path>
                        </g>
                    </g>
                </g>
            </g>
        </g>
    </g>
</svg>