<?xml version="1.0" encoding="UTF-8"?>
<svg width="23px" height="24px" viewBox="0 0 23 24" version="1.1" xmlns="http://www.w3.org/2000/svg" xmlns:xlink="http://www.w3.org/1999/xlink">
    <!-- Generator: sketchtool 61.1 (101010) - https://sketch.com -->
    <title>8B0D5963-1083-4C58-ACD3-9F89527CDA21</title>
    <desc>Created with sketchtool.</desc>
    <g id="Video-Call-test-task" stroke="none" stroke-width="1" fill="none" fill-rule="evenodd">
        <g id="1" transform="translate(-1310.000000, -948.000000)" fill="#FFFFFF">
            <g id="button" transform="translate(1296.000000, 934.000000)">
                <g id="icon/call/participants-white" transform="translate(10.000000, 10.000000)">
                    <g id="icons8-person" transform="translate(4.000000, 4.000000)">
                        <path d="M11.4782609,0 C8.02017391,0 5.2173913,2.80278261 5.2173913,6.26086957 L5.2173913,7.30434783 C5.2173913,10.7624348 8.02017391,13.5652174 11.4782609,13.5652174 C14.9363478,13.5652174 17.7391304,10.7624348 17.7391304,7.30434783 L17.7391304,6.26086957 C17.7391304,2.80278261 14.9363478,0 11.4782609,0 Z M7.40624974,17.2724181 C4.34364125,18.0727659 1.45465763,19.5796143 0.38926633,20.9653534 C-0.5644728,22.2050056 0.343434783,24 1.9076087,24 L21.0468751,24 C22.611049,24 23.5189565,22.2040111 22.5652174,20.9633155 C21.4998261,19.5775763 18.6118372,18.0727659 15.550272,17.2724181 C14.4546198,18.212592 13.034087,18.7826087 11.4782609,18.7826087 C9.9213913,18.7826087 8.50190191,18.2115485 7.40624974,17.2724181 Z" id="Shape" fill-rule="nonzero"></path>
                    </g>
                </g>
            </g>
        </g>
    </g>
</svg>