<?xml version="1.0" encoding="UTF-8"?>
<svg width="24px" height="24px" viewBox="0 0 24 24" version="1.1" xmlns="http://www.w3.org/2000/svg" xmlns:xlink="http://www.w3.org/1999/xlink">
    <!-- Generator: sketchtool 61.1 (101010) - https://sketch.com -->
    <title>37AD6C9A-A02D-4849-8EC1-C4A418BB957C</title>
    <desc>Created with sketchtool.</desc>
    <g id="Video-Call-test-task" stroke="none" stroke-width="1" fill="none" fill-rule="evenodd">
        <g id="1" transform="translate(-1372.000000, -948.000000)" fill="#FFFFFF">
            <g id="button" transform="translate(1358.000000, 934.000000)">
                <g id="icon/settings/settings-white" transform="translate(10.000000, 10.000000)">
                    <g id="icons8-settings" transform="translate(4.000000, 4.000000)">
                        <path d="M23.5617391,10.0283478 L20.4782609,9.52434783 C20.2977391,8.90556522 20.0509565,8.31078261 19.742087,7.74782609 L21.542087,5.18243478 C21.6876522,4.97530435 21.6626087,4.69304348 21.4836522,4.51356522 L19.4546087,2.48556522 C19.2735652,2.30504348 18.9886957,2.28156522 18.7810435,2.43130435 L16.2542609,4.24747826 C15.686087,3.9333913 15.086087,3.684 14.4636522,3.50295652 L13.9257391,0.432 C13.881913,0.182608696 13.6653913,0 13.4118261,0 L10.5422609,0 C10.2866087,0 10.0685217,0.185217391 10.0273043,0.43773913 L9.52852174,3.492 C8.90243478,3.672 8.3013913,3.91878261 7.73530435,4.22869565 L5.21530435,2.42869565 C5.00713043,2.28 4.72382609,2.304 4.54278261,2.484 L2.51478261,4.512 C2.33582609,4.69095652 2.31078261,4.97269565 2.45634783,5.17982609 L4.22973913,7.71704348 C3.91408696,8.28834783 3.6626087,8.89304348 3.47947826,9.52226087 L0.437217391,10.0288696 C0.18573913,10.0706087 0.00104347826,10.2886957 0.00104347826,10.5433043 L0.00104347826,13.4128696 C0.00104347826,13.665913 0.182608696,13.8824348 0.431478261,13.9267826 L3.47373913,14.4662609 C3.65582609,15.093913 3.90730435,15.6986087 4.224,16.2714783 L2.42869565,18.7826087 C2.28052174,18.9897391 2.304,19.274087 2.484,19.4551304 L4.51252174,21.4852174 C4.69147826,21.6641739 4.97373913,21.6892174 5.18086957,21.5436522 L7.72173913,19.764 C8.292,20.0775652 8.8946087,20.3264348 9.51913043,20.5069565 L10.0283478,23.5648696 C10.0695652,23.8158261 10.2871304,24 10.5422609,24 L13.4118261,24 C13.6648696,24 13.8813913,23.8184348 13.9252174,23.5695652 L14.4704348,20.4965217 C15.096,20.3123478 15.6954783,20.061913 16.26,19.7478261 L18.8191304,21.5431304 C19.0267826,21.6897391 19.3085217,21.6641739 19.488,21.4852174 L21.5165217,19.4551304 C21.6970435,19.274087 21.7205217,18.9886957 21.5707826,18.7810435 L19.7457391,16.2469565 C20.0551304,15.6834783 20.3008696,15.0876522 20.4798261,14.4688696 L23.5674783,13.9267826 C23.8173913,13.8829565 23.9989576,13.665913 23.9989576,13.4128696 L23.9989576,10.5433043 C23.9994783,10.2876522 23.8142609,10.0695652 23.5617391,10.0283478 Z M12,15.6521739 C9.98295652,15.6521739 8.34782609,14.0170435 8.34782609,12 C8.34782609,9.98295652 9.98295652,8.34782609 12,8.34782609 C14.0170435,8.34782609 15.6521739,9.98295652 15.6521739,12 C15.6521739,14.0170435 14.0170435,15.6521739 12,15.6521739 Z" id="Shape" fill-rule="nonzero"></path>
                    </g>
                </g>
            </g>
        </g>
    </g>
</svg>