<?xml version="1.0" encoding="UTF-8"?>
<svg width="24px" height="23px" viewBox="0 0 24 23" version="1.1" xmlns="http://www.w3.org/2000/svg" xmlns:xlink="http://www.w3.org/1999/xlink">
    <!-- Generator: sketchtool 61.1 (101010) - https://sketch.com -->
    <title>D7FD4137-89B3-4A33-AB85-1F6E8D88D37A</title>
    <desc>Created with sketchtool.</desc>
    <g id="Video-Call-test-task" stroke="none" stroke-width="1" fill="none" fill-rule="evenodd">
        <g id="1" transform="translate(-832.000000, -949.000000)" fill="#FFFFFF">
            <g id="main-group" transform="translate(570.000000, 934.000000)">
                <g id="button" transform="translate(248.000000, 0.000000)">
                    <g id="icon/call/share-screen-white" transform="translate(10.000000, 10.000000)">
                        <g id="icons8-monitor" transform="translate(4.000000, 5.333333)">
                            <path d="M17,20 C17.3606359,19.9948997 17.6960814,20.1843753 17.8778877,20.4958728 C18.0596941,20.8073704 18.0596941,21.1926296 17.8778877,21.5041272 C17.6960814,21.8156247 17.3606359,22.0051003 17,22 L17,22 L7,22 C6.63936408,22.0051003 6.30391864,21.8156247 6.12211228,21.5041272 C5.94030592,21.1926296 5.94030592,20.8073704 6.12211228,20.4958728 C6.30391864,20.1843753 6.63936408,19.9948997 7,20 L7,20 Z M22,4.26325641e-14 C23.105,4.26325641e-14 24,0.895 24,2 L24,2 L24,16 C24,17.105 23.105,18 22,18 L22,18 L2,18 C0.895,18 0,17.105 0,16 L0,16 L0,2 C0,0.895 0.895,4.26325641e-14 2,4.26325641e-14 L2,4.26325641e-14 Z M12,15 C11.448,15 11,15.448 11,16 C11,16.552 11.448,17 12,17 C12.552,17 13,16.552 13,16 C13,15.448 12.552,15 12,15 Z M22,2 L2,2 L2,14 L22,14 L22,2 Z M12.4444444,4 L16.8888889,7.55555556 L12.4444444,11.1111111 L12.4444444,8.88888889 L11.5555556,8.88888889 C10.0696486,8.8883216 8.70590614,9.71156476 8.01422222,11.0266667 C8.00468293,10.9069043 7.99999941,10.7868083 7.99999941,10.6666667 C7.99999941,8.212 9.98977778,6.22222222 12.4444444,6.22222222 L12.4444444,4 Z" id="Combined-Shape" fill-rule="nonzero"></path>
                        </g>
                    </g>
                </g>
            </g>
        </g>
    </g>
</svg>