<?xml version="1.0" encoding="UTF-8"?>
<svg width="23px" height="23px" viewBox="0 0 23 23" version="1.1" xmlns="http://www.w3.org/2000/svg" xmlns:xlink="http://www.w3.org/1999/xlink">
    <!-- Generator: sketchtool 61.1 (101010) - https://sketch.com -->
    <title>6BA0F26B-7E1C-40AE-8905-34FBB6BDFA0E</title>
    <desc>Created with sketchtool.</desc>
    <g id="Video-Call-test-task" stroke="none" stroke-width="1" fill="none" fill-rule="evenodd">
        <g id="1" transform="translate(-708.000000, -949.000000)" fill="#FFFFFF">
            <g id="main-group" transform="translate(570.000000, 934.000000)">
                <g id="button" transform="translate(124.000000, 0.000000)">
                    <g id="icon/call/voice-call-white" transform="translate(10.000000, 10.000000)">
                        <g id="icons8-call" transform="translate(4.000000, 5.000000)">
                            <path d="M8.111,17.225 C8.349,16.819 8.344,16.32 8.104,15.916 L6.885,13.87 C6.612,13.412 6.644,12.84 6.972,12.42 C7.539,11.694 8.493,10.525 9.51,9.508 C10.527,8.491 11.696,7.537 12.422,6.97 C12.842,6.642 13.414,6.61 13.872,6.883 L15.918,8.102 C16.322,8.343 16.825,8.345 17.231,8.107 L22.36,5.104 C22.856,4.813 23.1,4.235 22.963,3.676 C22.83,3.133 22.508,2.428 21.769,1.689 C19.455,-0.625 15.552,-1.854 6.85,6.848 C-1.852,15.55 -0.624,19.454 1.69,21.768 C2.431,22.509 3.137,22.83 3.681,22.963 C4.239,23.098 4.813,22.858 5.103,22.363 C5.826,21.127 7.387,18.461 8.111,17.225 Z" id="Path" fill-rule="nonzero"></path>
                        </g>
                    </g>
                </g>
            </g>
        </g>
    </g>
</svg>