<?xml version="1.0" encoding="UTF-8"?>
<svg width="24px" height="21px" viewBox="0 0 24 21" version="1.1" xmlns="http://www.w3.org/2000/svg" xmlns:xlink="http://www.w3.org/1999/xlink">
    <!-- Generator: sketchtool 61.1 (101010) - https://sketch.com -->
    <title>504EBF57-83B2-4159-9C6D-C21F6560DDD9</title>
    <desc>Created with sketchtool.</desc>
    <g id="Video-Call-test-task" stroke="none" stroke-width="1" fill="none" fill-rule="evenodd">
        <g id="1" transform="translate(-770.000000, -949.000000)" fill="#FFFFFF">
            <g id="main-group" transform="translate(570.000000, 934.000000)">
                <g id="button" transform="translate(186.000000, 0.000000)">
                    <g id="icon/call/voice-volume-3-white" transform="translate(10.000000, 10.000000)">
                        <g id="icons8-audio" transform="translate(4.000000, 5.333333)">
                            <path d="M19.9515624,0.596837625 C19.6400433,0.593871102 19.3551076,0.771964796 19.2213121,1.05330429 C19.0875165,1.33464378 19.1291937,1.66806352 19.3281248,1.90781248 C21.2467184,4.29431832 22.4,7.3117832 22.4,10.6046872 C22.4,13.7230192 21.3580632,16.5883496 19.6171872,18.9140624 C19.4458113,19.1429357 19.4095559,19.4458514 19.5220781,19.7087039 C19.6346003,19.9715564 19.8788053,20.1544123 20.1627033,20.1883915 C20.4466014,20.2223707 20.7270617,20.1023109 20.8984376,19.8734376 C22.8343616,17.2871504 24,14.0799552 24,10.6046872 C24,6.937592 22.7108072,3.56138168 20.575,0.90468752 C20.4249608,0.712429857 20.1954267,0.599101039 19.9515624,0.596837625 Z M16.0296872,2.91718752 C15.718636,2.91043532 15.4318773,3.08461662 15.2944835,3.36376064 C15.1570898,3.64290465 15.1939793,3.97638455 15.3890624,4.21875 C16.7707408,5.9865844 17.6,8.1950072 17.6,10.6046872 C17.6,12.8440952 16.884652,14.9095384 15.675,16.6109376 C15.4959134,16.8431579 15.4582213,17.154745 15.5767702,17.4229697 C15.695319,17.6911943 15.9511094,17.8730692 16.2433895,17.8969568 C16.5356696,17.9208444 16.817597,17.7829162 16.9781248,17.5375 C18.3700728,15.5796984 19.2,13.18608 19.2,10.6046872 C19.2,7.827168 18.2395216,5.26814056 16.65,3.23437504 C16.5025352,3.03944292 16.2740537,2.92261235 16.0296872,2.91718752 Z M8.8,4 L5.43437504,7.2 L2.4,7.2 C1.0744,7.2 0,8.2744 0,9.6 L0,11.2 C0,12.5256 1.0744,13.6 2.4,13.6 L5.43437504,13.6 L8.8,16.8 L8.8,4 Z M11.7906248,5.27343752 C11.4655827,5.26647845 11.16865,5.45690402 11.0393813,5.75521656 C10.9101125,6.05352909 10.9742155,6.40040339 11.2015624,6.6328128 C12.1915608,7.6699872 12.8,9.0625232 12.8,10.6046872 C12.8,11.98322 12.3140472,13.2430432 11.5046872,14.2375 C11.3134971,14.4579804 11.2575188,14.7650701 11.3586156,15.0388304 C11.4597125,15.3125907 11.7018459,15.5095909 11.9904468,15.5528894 C12.2790478,15.5961879 12.5683312,15.4789157 12.7453128,15.2468752 C13.7759528,13.980532 14.4,12.3605552 14.4,10.6046872 C14.4,8.639652 13.6189768,6.8477504 12.3593752,5.52812496 C12.2120039,5.36985184 12.0068378,5.27797809 11.7906248,5.27343752 Z" id="Shape" fill-rule="nonzero"></path>
                        </g>
                    </g>
                </g>
            </g>
        </g>
    </g>
</svg>